<?xml version="1.0" standalone="no"?>
<!DOCTYPE svg PUBLIC "-//W3C//DTD SVG 20010904//EN"
 "http://www.w3.org/TR/2001/REC-SVG-20010904/DTD/svg10.dtd">
<svg version="1.0" xmlns="http://www.w3.org/2000/svg"
 width="400.000000pt" height="400.000000pt" viewBox="0 0 400.000000 400.000000"
 preserveAspectRatio="xMidYMid meet">

<g transform="translate(0.000000,400.000000) scale(0.100000,-0.100000)"
fill="#000000" stroke="none">
<path d="M1890 3653 c-606 -44 -1096 -365 -1359 -892 -234 -467 -234 -1057 0
-1524 219 -439 610 -745 1089 -851 373 -83 761 -40 1097 120 193 92 404 259
544 431 501 612 500 1515 -1 2128 -179 219 -440 403 -705 498 -107 38 -286 75
-420 86 -117 11 -152 11 -245 4z m-181 -501 c100 -74 87 -223 -23 -273 -54
-25 -92 -24 -146 4 -33 16 -51 34 -67 67 -28 55 -29 82 -2 137 45 94 158 125
238 65z m-328 -284 c35 -49 59 -71 100 -91 82 -41 137 -37 326 24 87 28 203
61 259 74 278 66 654 75 654 15 0 -14 -18 -22 -87 -38 -98 -23 -400 -136 -508
-190 -105 -52 -173 -102 -246 -179 -117 -125 -167 -266 -156 -440 9 -128 51
-251 170 -490 59 -119 98 -210 103 -240 23 -153 -107 -368 -273 -450 -118 -58
-223 -58 -290 0 -49 43 -73 99 -73 172 1 191 97 329 299 428 l107 53 -84 104
c-301 377 -432 691 -432 1035 0 106 18 268 36 315 6 17 22 1 95 -102z"/>
</g>
</svg>
